<svg xmlns="http://www.w3.org/2000/svg" viewBox="28 28 526 526" fill="#000">
  <path d="M347,263.464789 L347,218.004824 C347,192.035605 325.955223,171 299.995176,171 L154.004824,171 C128.035605,171 107,192.044777 107,218.004824 L107,363.995176 C107,389.964395 128.044777,411 154.004824,411 L299.995176,411 C325.964395,411 347,389.955223 347,363.995176 L347,318.535211 L475,360 L475,222 L347,263.464789 Z M28,90.9906413 C28,56.2018707 56.2102459,28 90.9906413,28 L491.009359,28 C525.798129,28 554,56.2102459 554,90.9906413 L554,491.009359 C554,525.798129 525.789754,554 491.009359,554 L90.9906413,554 C56.2018707,554 28,525.789754 28,491.009359 L28,90.9906413 Z" stroke="none" fill-rule="evenodd"></path>
  <script>
    <![CDATA[
      var params = {}, svg;

      location.href.split('?')[1].split('&').forEach(function(i) {
        params[ i.split( '=' )[0] ] = i.split( '=' )[1];
      });

      if (params.color) {
        svg = document.getElementsByTagName("svg")[0];
        svg.setAttribute("fill", "#"+params.color);
      }
    ]]>
    </script>
</svg>